HIERARCHY
ROOT Hips
{
    OFFSET 0.000000 0.000000 0.000000
    CHANNELS 6 Xposition Yposition Zposition Zrotation Xrotation Yrotation
    JOINT Spine
    {
        OFFSET -0.000000 14.517291 0.000000
        CHANNELS 3 Zrotation Xrotation Yrotation
        JOINT Spine1
        {
            OFFSET -0.000000 37.558300 0.000000
            CHANNELS 3 Zrotation Xrotation Yrotation
            JOINT Neck
            {
                OFFSET -0.000000 37.404057 3.400369
                CHANNELS 3 Zrotation Xrotation Yrotation
                JOINT Head
                {
                    OFFSET -0.000000 24.785618 -3.540803
                    CHANNELS 3 Zrotation Xrotation Yrotation
                    End Site
                    {
                        OFFSET -0.000000 35.408028 0.000000
                    }
                }
            }
            JOINT LeftShoulder
            {
                OFFSET 6.992933 33.973492 -0.192664
                CHANNELS 3 Zrotation Xrotation Yrotation
                JOINT LeftArm
                {
                    OFFSET 21.527611 0.000000 0.000000
                    CHANNELS 3 Zrotation Xrotation Yrotation
                    JOINT LeftForeArm
                    {
                        OFFSET 56.353916 0.000000 0.000000
                        CHANNELS 3 Zrotation Xrotation Yrotation
                        JOINT LeftHand
                        {
                            OFFSET 47.774071 0.000000 0.000000
                            CHANNELS 3 Zrotation Xrotation Yrotation
                            End Site
                            {
                                OFFSET 26.556021 0.000000 0.000000
                            }
                        }
                    }
                }
            }
            JOINT RightShoulder
            {
                OFFSET -7.065357 33.973492 -0.192664
                CHANNELS 3 Zrotation Xrotation Yrotation
                JOINT RightArm
                {
                    OFFSET -21.527611 0.000000 0.000000
                    CHANNELS 3 Zrotation Xrotation Yrotation
                    JOINT RightForeArm
                    {
                        OFFSET -56.353916 0.000000 0.000000
                        CHANNELS 3 Zrotation Xrotation Yrotation
                        JOINT RightHand
                        {
                            OFFSET -47.774071 0.000000 0.000000
                            CHANNELS 3 Zrotation Xrotation Yrotation
                            End Site
                            {
                                OFFSET -26.556021 0.000000 0.000000
                            }
                        }
                    }
                }
            }
        }
    }
    JOINT LeftUpLeg
    {
        OFFSET 17.704014 0.000000 0.000000
        CHANNELS 3 Zrotation Xrotation Yrotation
        JOINT LeftLeg
        {
            OFFSET -0.000000 -81.181816 0.000000
            CHANNELS 3 Zrotation Xrotation Yrotation
            JOINT LeftFoot
            {
                OFFSET -0.000000 -62.821102 0.000000
                CHANNELS 3 Zrotation Xrotation Yrotation
                JOINT LeftToeBase
                {
                    OFFSET -0.000000 -11.507608 26.556021
                    CHANNELS 3 Zrotation Xrotation Yrotation
                    End Site
                    {
                        OFFSET -0.000000 0.000000 7.081605
                    }
                }
            }
        }
    }
    JOINT RightUpLeg
    {
        OFFSET -17.704014 0.000000 0.000000
        CHANNELS 3 Zrotation Xrotation Yrotation
        JOINT RightLeg
        {
            OFFSET -0.000000 -81.181816 0.000000
            CHANNELS 3 Zrotation Xrotation Yrotation
            JOINT RightFoot
            {
                OFFSET -0.000000 -62.821102 0.000000
                CHANNELS 3 Zrotation Xrotation Yrotation
                JOINT RightToeBase
                {
                    OFFSET -0.000000 -11.507608 26.556021
                    CHANNELS 3 Zrotation Xrotation Yrotation
                    End Site
                    {
                        OFFSET -0.000000 0.000000 7.081605
                    }
                }
            }
        }
    }
}
MOTION
Frames:    6
Frame Time:    0.008333
12.927044    146.802261    -130.879837    0.490257    -23.677189    29.128143    -1.165511    -3.029365    2.984644    -7.988472    2.546309    1.182319    7.433540    -3.707507    -12.186664    9.411676    9.684368    -13.520826    5.085428    8.568870    -16.296715    -35.729172    22.068005    -44.091988    -8.522717    -6.157293    -117.635391    2.521576    -20.048700    -5.509479    -14.799056    -3.227445    -4.465030    20.500549    -21.501398    54.468685    -17.666410    -16.023209    44.257271    -0.509662    -9.095124    32.447319    18.380009    9.978204    -2.908221    -21.711372    56.310108    -14.908794    30.304609    -32.117191    57.872150    0.000000    0.000000    0.000000    -8.448209    -10.076503    -8.582672    11.935200    28.475142    -12.995393    2.061279    7.800188    -7.336905    0.000000    0.000000    0.000000    
12.942365    146.838928    -130.835297    0.502138    -23.591396    29.149130    -1.171039    -3.025877    2.977726    -7.983222    2.549114    1.180165    7.478060    -3.739189    -12.178219    9.364800    9.622966    -13.519717    5.064373    8.543560    -16.304234    -35.697342    22.124931    -44.084045    -8.509121    -6.248002    -117.660439    2.568904    -20.120045    -5.440315    -14.789938    -3.245768    -4.445809    20.481634    -21.524603    54.402134    -17.632130    -16.049469    44.284344    -0.485629    -9.124439    32.441612    18.337656    9.968971    -2.891862    -21.628908    56.201794    -14.971130    30.224611    -32.129482    57.805347    0.000000    0.000000    0.000000    -8.507980    -10.117276    -8.564312    11.983693    28.465860    -13.005573    2.076163    7.778609    -7.395778    0.000000    0.000000    0.000000    
12.956466    146.879761    -130.785919    0.517863    -23.511223    29.162731    -1.201159    -3.009053    2.983726    -7.935635    2.544460    1.181035    7.447101    -3.719412    -12.209760    9.402213    9.525929    -13.535517    5.069160    8.546141    -16.298239    -35.704262    22.129362    -44.120476    -8.513830    -6.266379    -117.647072    2.583178    -20.141579    -5.414985    -14.794056    -3.211894    -4.492691    20.473026    -21.546274    54.423615    -17.651831    -16.075588    44.246937    -0.469573    -9.144958    32.374508    18.291874    9.967200    -2.827773    -21.480726    56.109524    -15.070955    30.093235    -32.174374    57.709824    0.000000    0.000000    0.000000    -8.553517    -10.147095    -8.590137    11.975362    28.454172    -12.987406    2.069113    7.757565    -7.389913    0.000000    0.000000    0.000000    
12.969452    146.921234    -130.740250    0.530141    -23.429373    29.176229    -1.211487    -2.991536    2.977104    -7.917992    2.539801    1.178083    7.433266    -3.758812    -12.201043    9.443854    9.512873    -13.523005    5.093810    8.555717    -16.301224    -35.718819    22.100031    -44.140053    -8.566449    -6.251239    -117.631241    2.532183    -20.204773    -5.447843    -14.802624    -3.266947    -4.494442    20.486090    -21.531647    54.386070    -17.637411    -16.071293    44.238781    -0.488830    -9.153706    32.419380    18.248379    9.956404    -2.768245    -21.335890    56.022655    -15.167488    29.931042    -32.237507    57.607441    0.000000    0.000000    0.000000    -8.595580    -10.180910    -8.629420    11.957379    28.443518    -12.991799    2.061507    7.738489    -7.348713    0.000000    0.000000    0.000000    
12.975425    146.962341    -130.689484    0.522120    -23.352442    29.200195    -1.200449    -2.950437    2.963852    -7.899909    2.494318    1.169922    7.406087    -3.758837    -12.222733    9.503138    9.484389    -13.534934    5.119870    8.606019    -16.266867    -35.671188    22.114941    -44.199955    -8.354896    -6.302459    -117.550835    2.481857    -19.901022    -5.748303    -14.796602    -3.269010    -4.502935    20.477180    -21.527819    54.358711    -17.545773    -16.321903    44.295658    -0.220015    -9.361689    32.382538    18.225914    9.919773    -2.715336    -21.176752    55.967129    -15.304484    29.747498    -32.311684    57.534901    0.000000    0.000000    0.000000    -8.616867    -10.210306    -8.668695    11.942666    28.417599    -13.023500    2.064791    7.740146    -7.323812    0.000000    0.000000    0.000000    
12.962561    147.004028    -130.641861    0.489907    -23.264994    29.228397    -1.139554    -2.882648    2.960618    -7.975573    2.418183    1.164444    7.496875    -3.849136    -12.245604    9.452839    9.542226    -13.589272    5.257903    8.494731    -16.368036    -35.938225    22.000048    -44.014641    -8.430492    -5.987093    -117.546547    2.547805    -19.724184    -5.735690    -14.725492    -3.238675    -4.633057    20.463533    -21.468895    54.419178    -17.690617    -16.201105    44.237919    -0.460621    -9.256877    32.319130    18.227961    9.843542    -2.713787    -21.094175    55.913555    -15.356324    29.533474    -32.393707    57.455986    0.000000    0.000000    0.000000    -8.610558    -10.262788    -8.711831    11.907978    28.394382    -13.051325    2.059176    7.735746    -7.277786    0.000000    0.000000    0.000000    
